<mxfile host="Electron" modified="2023-09-04T12:13:48.980Z" agent="Mozilla/5.0 (Windows NT 10.0; Win64; x64) AppleWebKit/537.36 (KHTML, like Gecko) draw.io/21.6.8 Chrome/114.0.5735.289 Electron/25.5.0 Safari/537.36" etag="b0YXZ1xWw4rOdD9iwNpQ" version="21.6.8" type="device">
  <diagram name="Page-1" id="EZ_pBPzMKdOYnbI2GwJ-">
    <mxGraphModel dx="904" dy="606" grid="1" gridSize="10" guides="1" tooltips="1" connect="0" arrows="0" fold="1" page="1" pageScale="1" pageWidth="850" pageHeight="1100" background="#FFCCFF" math="0" shadow="0">
      <root>
        <mxCell id="0" />
        <mxCell id="1" parent="0" />
        <mxCell id="D2gHTe7z9JvQCVnSDpr0-7" value="Region" style="sketch=0;outlineConnect=0;html=1;whiteSpace=wrap;fontSize=12;fontStyle=0;shape=mxgraph.aws4.group;grIcon=mxgraph.aws4.group_region;verticalAlign=top;align=left;spacingLeft=30;dashed=1;strokeColor=#0066CC;" vertex="1" parent="1">
          <mxGeometry x="200" y="40" width="480" height="550" as="geometry" />
        </mxCell>
        <mxCell id="D2gHTe7z9JvQCVnSDpr0-8" value="VPC" style="sketch=0;outlineConnect=0;gradientColor=none;html=1;whiteSpace=wrap;fontSize=12;fontStyle=0;shape=mxgraph.aws4.group;grIcon=mxgraph.aws4.group_vpc;strokeColor=#008700;fillColor=none;verticalAlign=top;align=left;spacingLeft=30;fontColor=#879196;dashed=0;" vertex="1" parent="1">
          <mxGeometry x="220" y="70" width="440" height="500" as="geometry" />
        </mxCell>
        <mxCell id="D2gHTe7z9JvQCVnSDpr0-9" value="&lt;font color=&quot;#009900&quot;&gt;Public subnet&lt;/font&gt;" style="sketch=0;outlineConnect=0;gradientColor=none;html=1;whiteSpace=wrap;fontSize=12;fontStyle=0;shape=mxgraph.aws4.group;grIcon=mxgraph.aws4.group_subnet;strokeColor=#008700;fillColor=none;verticalAlign=top;align=left;spacingLeft=30;fontColor=#879196;dashed=0;" vertex="1" parent="1">
          <mxGeometry x="220" y="170" width="440" height="130" as="geometry" />
        </mxCell>
        <mxCell id="D2gHTe7z9JvQCVnSDpr0-11" value="&lt;b&gt;&lt;font color=&quot;#000000&quot;&gt;Availability zone&lt;/font&gt;&lt;/b&gt;" style="sketch=0;outlineConnect=0;gradientColor=none;html=1;whiteSpace=wrap;fontSize=12;fontStyle=0;shape=mxgraph.aws4.group;grIcon=mxgraph.aws4.group_availability_zone;strokeColor=#007FFF;fillColor=none;verticalAlign=top;align=left;spacingLeft=30;fontColor=#E8E8E8;dashed=1;" vertex="1" parent="1">
          <mxGeometry x="240" y="120" width="150" height="40" as="geometry" />
        </mxCell>
        <mxCell id="D2gHTe7z9JvQCVnSDpr0-12" value="&lt;b&gt;&lt;font color=&quot;#000000&quot;&gt;Availability zone&lt;/font&gt;&lt;/b&gt;" style="sketch=0;outlineConnect=0;gradientColor=none;html=1;whiteSpace=wrap;fontSize=12;fontStyle=0;shape=mxgraph.aws4.group;grIcon=mxgraph.aws4.group_availability_zone;strokeColor=#007FFF;fillColor=none;verticalAlign=top;align=left;spacingLeft=30;fontColor=#E8E8E8;dashed=1;" vertex="1" parent="1">
          <mxGeometry x="480" y="120" width="150" height="40" as="geometry" />
        </mxCell>
        <mxCell id="D2gHTe7z9JvQCVnSDpr0-13" value="" style="sketch=0;outlineConnect=0;fontColor=#232F3E;gradientColor=none;fillColor=#BF0816;strokeColor=none;dashed=0;verticalLabelPosition=bottom;verticalAlign=top;align=center;html=1;fontSize=12;fontStyle=0;aspect=fixed;pointerEvents=1;shape=mxgraph.aws4.organizations_organizational_unit;" vertex="1" parent="1">
          <mxGeometry x="410.5" y="77.91" width="49" height="42.09" as="geometry" />
        </mxCell>
        <mxCell id="D2gHTe7z9JvQCVnSDpr0-18" value="" style="shape=singleArrow;direction=south;whiteSpace=wrap;html=1;" vertex="1" parent="1">
          <mxGeometry x="405" y="120" width="60" height="50" as="geometry" />
        </mxCell>
        <mxCell id="D2gHTe7z9JvQCVnSDpr0-19" value="" style="outlineConnect=0;dashed=0;verticalLabelPosition=bottom;verticalAlign=top;align=center;html=1;shape=mxgraph.aws3.application_load_balancer;fillColor=#F58534;gradientColor=none;" vertex="1" parent="1">
          <mxGeometry x="390" y="185" width="99.5" height="100" as="geometry" />
        </mxCell>
        <mxCell id="D2gHTe7z9JvQCVnSDpr0-20" value="&lt;b&gt;&lt;font color=&quot;#d9822b&quot;&gt;WEB TIER&lt;/font&gt;&lt;/b&gt;" style="text;strokeColor=none;align=center;fillColor=none;html=1;verticalAlign=middle;whiteSpace=wrap;rounded=0;" vertex="1" parent="1">
          <mxGeometry x="244.75" y="220" width="70" height="30" as="geometry" />
        </mxCell>
        <mxCell id="D2gHTe7z9JvQCVnSDpr0-21" value="&lt;font color=&quot;#007fff&quot;&gt;Private Subnet&lt;/font&gt;" style="sketch=0;outlineConnect=0;gradientColor=none;html=1;whiteSpace=wrap;fontSize=12;fontStyle=0;shape=mxgraph.aws4.group;grIcon=mxgraph.aws4.group_subnet;strokeColor=#007FFF;fillColor=none;verticalAlign=top;align=left;spacingLeft=30;fontColor=#E8E8E8;dashed=0;" vertex="1" parent="1">
          <mxGeometry x="220" y="300" width="440" height="130" as="geometry" />
        </mxCell>
        <mxCell id="D2gHTe7z9JvQCVnSDpr0-22" value="&lt;font color=&quot;#007fff&quot;&gt;Private Subnet&lt;/font&gt;" style="sketch=0;outlineConnect=0;gradientColor=none;html=1;whiteSpace=wrap;fontSize=12;fontStyle=0;shape=mxgraph.aws4.group;grIcon=mxgraph.aws4.group_subnet;strokeColor=#007FFF;fillColor=none;verticalAlign=top;align=left;spacingLeft=30;fontColor=#E8E8E8;dashed=0;" vertex="1" parent="1">
          <mxGeometry x="220" y="430" width="440" height="140" as="geometry" />
        </mxCell>
        <mxCell id="D2gHTe7z9JvQCVnSDpr0-23" value="" style="outlineConnect=0;dashed=0;verticalLabelPosition=bottom;verticalAlign=top;align=center;html=1;shape=mxgraph.aws3.ec2;fillColor=#F58534;gradientColor=none;" vertex="1" parent="1">
          <mxGeometry x="509.5" y="318.5" width="76.5" height="93" as="geometry" />
        </mxCell>
        <mxCell id="D2gHTe7z9JvQCVnSDpr0-24" value="" style="outlineConnect=0;dashed=0;verticalLabelPosition=bottom;verticalAlign=top;align=center;html=1;shape=mxgraph.aws3.ec2;fillColor=#F58534;gradientColor=none;" vertex="1" parent="1">
          <mxGeometry x="320" y="318.5" width="76.5" height="93" as="geometry" />
        </mxCell>
        <mxCell id="D2gHTe7z9JvQCVnSDpr0-25" value="&lt;b&gt;&lt;font style=&quot;font-size: 17px;&quot;&gt;EC2&lt;/font&gt;&lt;/b&gt;" style="text;strokeColor=none;align=center;fillColor=none;html=1;verticalAlign=middle;whiteSpace=wrap;rounded=0;" vertex="1" parent="1">
          <mxGeometry x="310.5" y="350" width="100" height="30" as="geometry" />
        </mxCell>
        <mxCell id="D2gHTe7z9JvQCVnSDpr0-26" value="&lt;b&gt;&lt;font style=&quot;font-size: 17px;&quot;&gt;EC2&lt;/font&gt;&lt;/b&gt;" style="text;strokeColor=none;align=center;fillColor=none;html=1;verticalAlign=middle;whiteSpace=wrap;rounded=0;" vertex="1" parent="1">
          <mxGeometry x="500" y="350" width="100" height="30" as="geometry" />
        </mxCell>
        <mxCell id="D2gHTe7z9JvQCVnSDpr0-27" value="" style="edgeStyle=none;orthogonalLoop=1;jettySize=auto;html=1;rounded=0;" edge="1" parent="1" source="D2gHTe7z9JvQCVnSDpr0-19" target="D2gHTe7z9JvQCVnSDpr0-25">
          <mxGeometry width="80" relative="1" as="geometry">
            <mxPoint x="450" y="310" as="sourcePoint" />
            <mxPoint x="530" y="310" as="targetPoint" />
            <Array as="points" />
          </mxGeometry>
        </mxCell>
        <mxCell id="D2gHTe7z9JvQCVnSDpr0-28" value="" style="edgeStyle=none;orthogonalLoop=1;jettySize=auto;html=1;rounded=0;" edge="1" parent="1" source="D2gHTe7z9JvQCVnSDpr0-19" target="D2gHTe7z9JvQCVnSDpr0-26">
          <mxGeometry width="80" relative="1" as="geometry">
            <mxPoint x="416" y="295" as="sourcePoint" />
            <mxPoint x="372" y="360" as="targetPoint" />
            <Array as="points" />
          </mxGeometry>
        </mxCell>
        <mxCell id="D2gHTe7z9JvQCVnSDpr0-29" value="" style="outlineConnect=0;dashed=0;verticalLabelPosition=bottom;verticalAlign=top;align=center;html=1;shape=mxgraph.aws3.rds_db_instance;fillColor=#2E73B8;gradientColor=none;" vertex="1" parent="1">
          <mxGeometry x="320" y="460" width="49.5" height="66" as="geometry" />
        </mxCell>
        <mxCell id="D2gHTe7z9JvQCVnSDpr0-30" value="" style="outlineConnect=0;dashed=0;verticalLabelPosition=bottom;verticalAlign=top;align=center;html=1;shape=mxgraph.aws3.rds_db_instance;fillColor=#2E73B8;gradientColor=none;" vertex="1" parent="1">
          <mxGeometry x="514.75" y="460" width="49.5" height="66" as="geometry" />
        </mxCell>
        <mxCell id="D2gHTe7z9JvQCVnSDpr0-31" value="&lt;b&gt;RDS&amp;nbsp;&lt;br&gt;MYSQL&lt;/b&gt;" style="text;strokeColor=none;align=center;fillColor=none;html=1;verticalAlign=middle;whiteSpace=wrap;rounded=0;" vertex="1" parent="1">
          <mxGeometry x="509.5" y="526" width="60" height="30" as="geometry" />
        </mxCell>
        <mxCell id="D2gHTe7z9JvQCVnSDpr0-32" value="&lt;b&gt;RDS&amp;nbsp;&lt;br&gt;MYSQL&lt;/b&gt;" style="text;strokeColor=none;align=center;fillColor=none;html=1;verticalAlign=middle;whiteSpace=wrap;rounded=0;" vertex="1" parent="1">
          <mxGeometry x="314.75" y="526" width="60" height="30" as="geometry" />
        </mxCell>
        <mxCell id="D2gHTe7z9JvQCVnSDpr0-33" value="" style="edgeStyle=none;orthogonalLoop=1;jettySize=auto;html=1;rounded=0;" edge="1" parent="1" source="D2gHTe7z9JvQCVnSDpr0-23" target="D2gHTe7z9JvQCVnSDpr0-29">
          <mxGeometry width="80" relative="1" as="geometry">
            <mxPoint x="450" y="310" as="sourcePoint" />
            <mxPoint x="530" y="310" as="targetPoint" />
            <Array as="points" />
          </mxGeometry>
        </mxCell>
        <mxCell id="D2gHTe7z9JvQCVnSDpr0-34" value="" style="edgeStyle=none;orthogonalLoop=1;jettySize=auto;html=1;rounded=0;" edge="1" parent="1" source="D2gHTe7z9JvQCVnSDpr0-29" target="D2gHTe7z9JvQCVnSDpr0-30">
          <mxGeometry width="80" relative="1" as="geometry">
            <mxPoint x="510" y="400" as="sourcePoint" />
            <mxPoint x="380" y="487" as="targetPoint" />
            <Array as="points" />
          </mxGeometry>
        </mxCell>
        <mxCell id="D2gHTe7z9JvQCVnSDpr0-35" value="&lt;b&gt;Database in second AZ&lt;/b&gt;" style="text;strokeColor=none;align=center;fillColor=none;html=1;verticalAlign=middle;whiteSpace=wrap;rounded=0;" vertex="1" parent="1">
          <mxGeometry x="399.63" y="496" width="80.25" height="30" as="geometry" />
        </mxCell>
        <mxCell id="D2gHTe7z9JvQCVnSDpr0-36" value="&lt;b&gt;&lt;font color=&quot;#de852c&quot;&gt;APPLICATION&lt;br&gt;&amp;nbsp;TIER&lt;/font&gt;&lt;/b&gt;" style="text;strokeColor=none;align=center;fillColor=none;html=1;verticalAlign=middle;whiteSpace=wrap;rounded=0;" vertex="1" parent="1">
          <mxGeometry x="240" y="350" width="70" height="30" as="geometry" />
        </mxCell>
        <mxCell id="D2gHTe7z9JvQCVnSDpr0-37" value="&lt;b&gt;&lt;font color=&quot;#de852c&quot;&gt;DATA&lt;br&gt;&amp;nbsp;TIER&lt;/font&gt;&lt;/b&gt;" style="text;strokeColor=none;align=center;fillColor=none;html=1;verticalAlign=middle;whiteSpace=wrap;rounded=0;" vertex="1" parent="1">
          <mxGeometry x="240" y="485" width="70" height="30" as="geometry" />
        </mxCell>
      </root>
    </mxGraphModel>
  </diagram>
</mxfile>
